<svg t="1733104388017" class="icon" viewBox="0 0 1024 1024" version="1.1" xmlns="http://www.w3.org/2000/svg" p-id="4332" width="200" height="200"><path d="M431.624533 720.085333c2.730667-2.304 5.504-4.650667 8.064-7.168-51.584 50.176-117.589333 74.922667-183.082666 74.026667h-0.981334a253.354667 253.354667 0 0 1-181.12-80.810667 274.730667 274.730667 0 0 1-64.298666-114.816v-0.298666c-25.770667-93.824-2.773333-199.424 68.48-273.322667 100.096-103.850667 259.072-106.325333 360.917333-8.746667l51.84 54.4 23.168 24.32 180.394667 191.317334h0.768c1.92 1.962667 3.84 3.242667 5.077333 5.162666 36.48 33.237333 92.245333 32 127.402667-4.48 37.077333-38.4 38.4-101.12 2.005333-140.16a74.112 74.112 0 0 0-12.928-11.52l-10.24-7.082666c-35.157333-19.157333-80-12.8-110.08 17.92a83.584 83.584 0 0 0-11.52 14.762666 101.546667 101.546667 0 0 0-14.762667 66.602667l-64.597333-65.237333-74.922667-71.04a277.290667 277.290667 0 0 1 61.098667-80.042667 219.050667 219.050667 0 0 0-8.064 7.168 257.194667 257.194667 0 0 1 183.082667-73.984h0.981333a253.44 253.44 0 0 1 181.162667 80.853333 274.346667 274.346667 0 0 1 64.256 114.901334v0.256c25.813333 93.738667 2.816 199.509333-68.48 273.28-100.096 103.850667-259.072 106.410667-360.917334 8.746666l-51.797333-54.869333-23.168-24.789333-180.266667-192.042667-0.170666-0.64c-0.682667 0-0.682667-0.64-0.682667-0.64-1.92-1.962667-3.84-3.84-5.162667-5.802667a90.026667 90.026667 0 0 0-127.317333 4.48c-37.12 38.4-38.4 101.12-1.92 139.562667 3.84 4.48 8.32 7.68 12.8 11.52l10.24 6.4a92.16 92.16 0 0 0 110.08-18.602667c4.48-4.437333 8.362667-9.6 11.562667-14.72 12.842667-19.84 17.237333-44.117333 14.72-67.2l64.64 66.602667 75.008 75.562667a273.493333 273.493333 0 0 1-61.141334 80l-0.128 0.170666z" p-id="4333"></path></svg>